<svg width="25" height="25" viewBox="0 0 25 25" fill="none" xmlns="http://www.w3.org/2000/svg">
<path d="M13.0435 2.08696H11.9565V0H13.0435V2.08696ZM13.0435 25H11.9565V22.913H13.0435V25ZM25 13.0435H22.913V11.9565H25V13.0435ZM2.08696 13.0435H0V11.9565H2.08696V13.0435ZM20.2543 5.51091L19.4848 4.75005L20.9565 3.27832L21.7174 4.0479L20.2543 5.51091ZM4.0478 21.7175L3.27827 20.9566L4.75 19.4848L5.51086 20.2544L4.0478 21.7175ZM20.9565 21.7175L19.4849 20.2543L20.2544 19.4848L21.7174 20.9565L20.9565 21.7175ZM4.75 5.51084L3.27827 4.0478L4.0478 3.27827L5.51086 4.74995L4.75 5.51084ZM12.5 4.66301C16.8282 4.66301 20.337 8.17175 20.337 12.5C20.337 16.8282 16.8282 20.337 12.5 20.337C8.17178 20.337 4.66304 16.8282 4.66304 12.5C4.66799 8.17375 8.17378 4.66797 12.4995 4.66304H12.5L12.5 4.66301ZM12.5 19.25C16.2279 19.25 19.25 16.2279 19.25 12.5C19.25 8.77207 16.2279 5.75 12.5 5.75C8.77207 5.75 5.75 8.77207 5.75 12.5C5.75432 16.2262 8.77383 19.2457 12.4996 19.25H12.5Z" fill="black"/>
</svg>
